<svg width="70" height="70" viewBox="0 0 70 70" fill="none" xmlns="http://www.w3.org/2000/svg">
<path d="M26.3667 62.8249C29.1667 63.6708 31.9958 64.1666 35 64.1666C42.7355 64.1666 50.1541 61.0937 55.624 55.6239C61.0938 50.1541 64.1667 42.7354 64.1667 34.9999C64.1667 31.1697 63.4123 27.377 61.9465 23.8383C60.4807 20.2997 58.3323 17.0843 55.624 14.376C52.9156 11.6676 49.7003 9.51919 46.1616 8.05343C42.6229 6.58767 38.8302 5.83325 35 5.83325C31.1698 5.83325 27.3771 6.58767 23.8384 8.05343C20.2997 9.51919 17.0844 11.6676 14.3761 14.376C8.90624 19.8458 5.83333 27.2644 5.83333 34.9999C5.83333 47.3958 13.6208 58.0416 24.6167 62.2416C24.3542 59.9666 24.0917 56.2041 24.6167 53.6083L27.9708 39.1999C27.9708 39.1999 27.125 37.5083 27.125 34.8249C27.125 30.7999 29.6333 27.7958 32.4917 27.7958C35 27.7958 36.1667 29.6333 36.1667 31.9958C36.1667 34.5041 34.5042 38.0916 33.6583 41.5333C33.1625 44.3916 35.175 46.8999 38.0917 46.8999C43.2833 46.8999 47.3083 41.3583 47.3083 33.5416C47.3083 26.5416 42.2917 21.7583 35.0875 21.7583C26.8625 21.7583 22.0208 27.8833 22.0208 34.3291C22.0208 36.8374 22.8375 39.3749 24.1792 41.0374C24.4417 41.2124 24.4417 41.4458 24.3542 41.8833L23.5083 45.0624C23.5083 45.5583 23.1875 45.7333 22.6917 45.3833C18.9583 43.7499 16.8 38.4416 16.8 34.1541C16.8 24.9374 23.3333 16.5666 35.9333 16.5666C45.9667 16.5666 53.7833 23.7708 53.7833 33.3374C53.7833 43.3708 47.5708 51.4208 38.675 51.4208C35.8458 51.4208 33.075 49.9041 32.0833 48.1249L30.1292 55.0374C29.4583 57.5458 27.6208 60.8999 26.3667 62.9124V62.8249V62.8249Z" fill="#CCCCCC"/>
</svg>
