<svg width="70" height="70" viewBox="0 0 70 70" fill="none" xmlns="http://www.w3.org/2000/svg">
<path d="M61.0956 24.2229C61.0661 22.0139 60.6526 19.8268 59.8735 17.7596C59.1978 16.0159 58.1659 14.4322 56.8435 13.1099C55.5212 11.7876 53.9376 10.7556 52.1939 10.08C50.1532 9.31395 47.9973 8.89974 45.8181 8.855C43.0122 8.72958 42.1226 8.69458 35.0001 8.69458C27.8776 8.69458 26.9647 8.69458 24.1793 8.855C22.001 8.90007 19.8462 9.31428 17.8064 10.08C16.0624 10.7552 14.4785 11.787 13.1561 13.1093C11.8338 14.4317 10.802 16.0156 10.1268 17.7596C9.35923 19.7987 8.94591 21.9541 8.90472 24.1325C8.7793 26.9412 8.74139 27.8308 8.74139 34.9533C8.74139 42.0758 8.74139 42.9858 8.90472 45.7742C8.94847 47.9558 9.35972 50.1083 10.1268 52.1529C10.8031 53.8964 11.8357 55.4796 13.1585 56.8014C14.4813 58.1232 16.0653 59.1546 17.8093 59.8296C19.8435 60.6264 21.9987 61.0703 24.1822 61.1421C26.991 61.2675 27.8806 61.3054 35.0031 61.3054C42.1256 61.3054 43.0385 61.3054 45.8239 61.1421C48.0031 61.0992 50.1591 60.6859 52.1997 59.92C53.943 59.2436 55.5262 58.2113 56.8484 56.8891C58.1706 55.5669 59.2029 53.9837 59.8793 52.2404C60.6464 50.1987 61.0576 48.0462 61.1014 45.8617C61.2268 43.0558 61.2647 42.1662 61.2647 35.0408C61.2589 27.9183 61.2589 27.0142 61.0956 24.2229V24.2229ZM34.9826 48.4225C27.5335 48.4225 21.4989 42.3879 21.4989 34.9387C21.4989 27.4896 27.5335 21.455 34.9826 21.455C38.5587 21.455 41.9884 22.8756 44.5171 25.4043C47.0458 27.933 48.4664 31.3626 48.4664 34.9387C48.4664 38.5149 47.0458 41.9445 44.5171 44.4732C41.9884 47.0019 38.5587 48.4225 34.9826 48.4225V48.4225ZM49.0031 24.1004C48.59 24.1008 48.181 24.0197 47.7994 23.8619C47.4177 23.704 47.071 23.4724 46.7789 23.1804C46.4869 22.8883 46.2553 22.5416 46.0974 22.1599C45.9396 21.7783 45.8585 21.3693 45.8589 20.9562C45.8589 20.5435 45.9402 20.1349 46.0981 19.7536C46.256 19.3723 46.4875 19.0258 46.7794 18.734C47.0712 18.4422 47.4176 18.2107 47.7989 18.0528C48.1802 17.8948 48.5889 17.8135 49.0016 17.8135C49.4143 17.8135 49.823 17.8948 50.2043 18.0528C50.5855 18.2107 50.932 18.4422 51.2238 18.734C51.5157 19.0258 51.7471 19.3723 51.9051 19.7536C52.063 20.1349 52.1443 20.5435 52.1443 20.9562C52.1443 22.6946 50.7385 24.1004 49.0031 24.1004Z" fill="#CCCCCC"/>
<path d="M34.9829 43.6974C39.8202 43.6974 43.7416 39.776 43.7416 34.9387C43.7416 30.1014 39.8202 26.1799 34.9829 26.1799C30.1456 26.1799 26.2242 30.1014 26.2242 34.9387C26.2242 39.776 30.1456 43.6974 34.9829 43.6974Z" fill="#CCCCCC"/>
</svg>
