<svg width="70" height="70" viewBox="0 0 70 70" fill="none" xmlns="http://www.w3.org/2000/svg">
<path fill-rule="evenodd" clip-rule="evenodd" d="M35.0754 5.83325C19.0075 5.83325 5.98454 18.8562 5.98454 34.9241C5.98454 47.7749 14.3175 58.6803 25.8791 62.5303C27.3345 62.7928 27.8595 61.8974 27.8595 61.1274C27.8595 60.4362 27.8362 58.6045 27.8275 56.1808C19.7337 57.9366 18.0245 52.2783 18.0245 52.2783C16.7062 48.9183 14.7958 48.0228 14.7958 48.0228C12.1562 46.2174 14.997 46.2583 14.997 46.2583C17.9195 46.4624 19.4508 49.2566 19.4508 49.2566C22.0466 53.7016 26.2641 52.4183 27.915 51.6745C28.1804 49.7933 28.9387 48.5099 29.767 47.7837C23.3095 47.0516 16.5195 44.5549 16.5195 33.4045C16.5195 30.2341 17.6541 27.6324 19.5062 25.6024C19.2116 24.8645 18.2054 21.9041 19.795 17.9024C19.795 17.9024 22.2362 17.1178 27.7925 20.8803C30.1654 20.2348 32.6132 19.9053 35.0725 19.9003C37.5317 19.9043 39.9797 20.2339 42.3525 20.8803C47.9116 17.1149 50.35 17.9024 50.35 17.9024C51.9395 21.9041 50.942 24.8645 50.6387 25.6024C52.5054 27.6324 53.6254 30.2312 53.6254 33.4045C53.6254 44.5841 46.8295 47.0399 40.3487 47.7603C41.3841 48.6587 42.3175 50.432 42.3175 53.1445C42.3175 57.0353 42.2825 60.1737 42.2825 61.1274C42.2825 61.9062 42.8016 62.8103 44.2862 62.5245C55.842 58.6687 64.1662 47.772 64.1662 34.9241C64.1662 18.8562 51.1433 5.83325 35.0754 5.83325Z" fill="#CCCCCC"/>
</svg>
