<svg width="91" height="34" viewBox="0 0 91 34" fill="none" xmlns="http://www.w3.org/2000/svg">
<g filter="url(#filter0_i_821_367)">
<path d="M12.0119 1.5H17.5245L27.8014 32.19H22.2101L19.6114 24.5391H9.84627L7.28687 32.19H1.69556L12.0119 1.5ZM18.627 20.3462L14.7682 7.68124L10.7519 20.3462H18.627Z" fill="white"/>
<path d="M33.7816 1.5L40.7116 12.8251L47.6023 1.5H53.5086L43.8223 17.0612L53.1936 32.19H47.2873L40.7116 21.2972L34.0966 32.19H28.1509L37.5222 17.0612L27.8359 1.5H33.7816Z" fill="white"/>
<path d="M12.0119 1H11.6525L11.538 1.34069L1.22163 32.0307L1 32.69H1.69557H7.28688H7.64688L7.76108 32.3486L10.2063 25.0391H19.2532L21.7367 32.3508L21.8519 32.69H22.2101H27.253H27.8014H28.1509H28.4962H34.0966H34.3779L34.5239 32.4495L40.7104 22.2626L46.8593 32.4484L47.0051 32.69H47.2873H53.1936H54.0915L53.6187 31.9267L44.4108 17.0618L53.9331 1.76423L54.4088 1H53.5086H47.6023H47.3213L47.1752 1.2401L40.7104 11.8651L34.2081 1.23903L34.0618 1H33.7816H27.8359H26.9357L27.4114 1.76423L36.9337 17.0618L28.06 31.3873L17.9986 1.34123L17.8843 1H17.5245H12.0119ZM11.435 19.8462L14.7587 9.36545L17.952 19.8462H11.435Z" stroke="black"/>
<path d="M12.0119 1H11.6525L11.538 1.34069L1.22163 32.0307L1 32.69H1.69557H7.28688H7.64688L7.76108 32.3486L10.2063 25.0391H19.2532L21.7367 32.3508L21.8519 32.69H22.2101H27.253H27.8014H28.1509H28.4962H34.0966H34.3779L34.5239 32.4495L40.7104 22.2626L46.8593 32.4484L47.0051 32.69H47.2873H53.1936H54.0915L53.6187 31.9267L44.4108 17.0618L53.9331 1.76423L54.4088 1H53.5086H47.6023H47.3213L47.1752 1.2401L40.7104 11.8651L34.2081 1.23903L34.0618 1H33.7816H27.8359H26.9357L27.4114 1.76423L36.9337 17.0618L28.06 31.3873L17.9986 1.34123L17.8843 1H17.5245H12.0119ZM11.435 19.8462L14.7587 9.36545L17.952 19.8462H11.435Z" stroke="black" stroke-opacity="0.2"/>
<path d="M11.9276 1H11.5709L11.4573 1.34402L1.21993 32.3343L1 33H1.69025H7.23876H7.59601L7.70933 32.6553L10.1358 25.2743H19.1135L21.578 32.6575L21.6923 33H22.0477H27.052H27.5962H27.9431H28.2857H33.8433H34.1224L34.2673 32.7572L40.4064 22.4706L46.5083 32.756L46.653 33H46.933H52.7941H53.6851L53.2159 32.2292L44.0785 17.2189L53.5279 1.7717L54 1H53.1067H47.2456H46.9667L46.8218 1.24245L40.4064 11.9714L33.9539 1.24136L33.8087 1H33.5307H27.6305H26.7372L27.2092 1.7717L36.6586 17.2189L27.8529 31.6846L17.8685 1.34457L17.755 1H17.398H11.9276ZM11.3551 20.0306L14.6534 9.44727L17.8222 20.0306H11.3551Z" stroke="black" stroke-opacity="0.2"/>
</g>
<path d="M58 33V0H63V33H58Z" fill="#EC7979"/>
<path d="M90.2708 5.55717H81.3326V32.6082H75.9382V5.55717H67V0H90.2708V5.55717Z" fill="#EC7979"/>
<defs>
<filter id="filter0_i_821_367" x="0.304443" y="0.5" width="55.0045" height="37" filterUnits="userSpaceOnUse" color-interpolation-filters="sRGB">
<feFlood flood-opacity="0" result="BackgroundImageFix"/>
<feBlend mode="normal" in="SourceGraphic" in2="BackgroundImageFix" result="shape"/>
<feColorMatrix in="SourceAlpha" type="matrix" values="0 0 0 0 0 0 0 0 0 0 0 0 0 0 0 0 0 0 127 0" result="hardAlpha"/>
<feOffset dy="4"/>
<feGaussianBlur stdDeviation="2"/>
<feComposite in2="hardAlpha" operator="arithmetic" k2="-1" k3="1"/>
<feColorMatrix type="matrix" values="0 0 0 0 0 0 0 0 0 0 0 0 0 0 0 0 0 0 0.25 0"/>
<feBlend mode="normal" in2="shape" result="effect1_innerShadow_821_367"/>
</filter>
</defs>
</svg>
